<mxfile host="app.diagrams.net" modified="2023-12-21T10:04:52.546Z" agent="Mozilla/5.0 (Macintosh; Intel Mac OS X 10_15_7) AppleWebKit/537.36 (KHTML, like Gecko) Chrome/120.0.0.0 Safari/537.36" version="22.1.11" etag="6lvH9s9unXReBMvbgskt" type="github">
  <diagram name="第 1 页" id="3bkrZKrF0plEzQzwkOfd">
    <mxGraphModel>
      <root>
        <mxCell id="0" />
        <mxCell id="1" parent="0" />
      </root>
    </mxGraphModel>
  </diagram>
</mxfile>
